<svg class="svgicon" id="svg17" preserveAspectRatio="xMidYMid meet" xmlns="http://www.w3.org/2000/svg" viewBox="0 0 128 128"><style> #svg17 path, #svg17 circle, #svg17 polygon, #svg17 rect { fill: rgb(51, 51, 51) } #svg17 defs &gt; path { fill: none } #svg17 path[fill="none"], #svg17 circle[fill="none"], #svg17 polygon[fill="none"], #svg17 rect[fill="none"] { fill: none } </style><style type="text/css"> #svg17 .st0{fill:rgb(51, 51, 51);} </style><path class="st0" d="M64,2.688C30.192,2.688,2.688,30.192,2.688,64c0,33.808,27.504,61.312,61.312,61.312S125.312,97.807,125.312,64 C125.312,30.192,97.808,2.688,64,2.688z M64.042,99.272c-1.921,0-3.623-0.632-5.059-1.879c-1.478-1.28-2.227-3.071-2.227-5.323 c0-2.008,0.714-3.723,2.12-5.098c1.401-1.369,3.139-2.062,5.165-2.062c2.003,0,3.715,0.696,5.09,2.07 c1.374,1.375,2.07,3.087,2.07,5.09c0,2.22-0.739,4.001-2.196,5.296C67.583,98.63,65.913,99.272,64.042,99.272z M84.664,58.806 c-0.993,1.844-2.194,3.461-3.57,4.809c-1.31,1.282-3.692,3.47-7.082,6.501c-0.895,0.815-1.626,1.546-2.168,2.167 c-0.509,0.584-0.888,1.114-1.124,1.575c-0.244,0.479-0.436,0.959-0.567,1.428c-0.145,0.51-0.363,1.419-0.67,2.781 c-0.604,3.31-2.646,5.08-5.896,5.08c-1.693,0-3.144-0.566-4.31-1.685c-1.179-1.127-1.776-2.775-1.776-4.897 c0-2.438,0.389-4.594,1.154-6.405c0.758-1.794,1.781-3.394,3.04-4.755c1.206-1.305,2.845-2.866,4.871-4.642 c1.75-1.531,3.02-2.691,3.775-3.449c0.718-0.716,1.329-1.524,1.818-2.404c0.458-0.821,0.681-1.69,0.681-2.656 c0-1.931-0.699-3.517-2.139-4.848c-1.463-1.351-3.316-2.008-5.668-2.008c-2.73,0-4.739,0.666-5.969,1.979 c-1.327,1.417-2.478,3.567-3.42,6.393c-1.33,4.421-4.15,5.356-6.281,5.356c-1.817,0-3.373-0.651-4.624-1.936 c-1.244-1.276-1.876-2.701-1.876-4.233c0-2.797,0.9-5.653,2.675-8.489c1.764-2.821,4.363-5.184,7.728-7.024 c3.36-1.837,7.319-2.769,11.768-2.769c4.128,0,7.836,0.778,11.019,2.312c3.209,1.546,5.729,3.688,7.492,6.367 c1.77,2.691,2.666,5.658,2.666,8.819C86.211,54.67,85.69,56.904,84.664,58.806z"></path></svg>