<svg class="svgicon" id="svg37" preserveAspectRatio="xMidYMid meet" xmlns="http://www.w3.org/2000/svg" viewBox="0 0 128 128"><style> #svg37 path, #svg37 circle, #svg37 polygon, #svg37 rect { fill: rgb(51, 51, 51) } #svg37 defs &gt; path { fill: none } #svg37 path[fill="none"], #svg37 circle[fill="none"], #svg37 polygon[fill="none"], #svg37 rect[fill="none"] { fill: none } </style><path d="M97.955,15.026l-5.261,5.389c-2.049,0.987-12.018,6.259-13.404,6.993c-2.928,0.417-8.128,1.144-11.209,1.488 c-2.279,0.263-6.324,3.31-10.694,5.684c-4.196,2.283-8.635,3.277-8.888,4.808c-0.693,4.202,5.787,4.015,6.547,3.942 c4.188-0.41,8.854-2.306,11.625-3.593l-5.144,5.056c-0.055,0.046-0.11,0.088-0.164,0.137L39.195,65.618 c-1.611,1.485-1.845,3.86-0.516,5.305c1.328,1.441,3.713,1.408,5.328-0.079L64.9,52.703l0.519,0.569L41.777,76.47 c-1.59,1.507-1.745,3.932-0.341,5.412c1.401,1.477,3.83,1.451,5.42-0.057l24.673-22.396l0.505,0.378L52.505,79.162 c-1.732,1.684-1.913,4.307-0.407,5.856c1.507,1.551,4.132,1.439,5.866-0.245l21.041-19.75l0.39,0.291L68.951,76.801 c-1.482,1.483-1.671,3.697-0.424,4.945c1.249,1.247,3.463,1.056,4.945-0.428l11.463-12.236c0.082-0.082,0.162-0.164,0.242-0.247 l0.035,0.021c0,0,9.944-8.328,15.1-14.217c5.074-5.796,7.035-9.547,10.582-15.718l3.995-3.481 C110.765,27.471,104.966,20.511,97.955,15.026z"></path><path d="M39.414,92.974l-4.597,4.398l-0.035-0.019l-0.188-0.239l6.43-7.209c0.743-0.805,0.763-1.995,0.043-2.66 c-0.719-0.664-1.906-0.552-2.648,0.252l-6.211,6.593l-0.271-0.344l7.623-8.839c0.665-0.738,0.649-1.838-0.036-2.456 c-0.687-0.619-1.783-0.521-2.448,0.216l-7.941,8.516l-0.318-0.264l5.904-7.158c0.655-0.748,0.643-1.829-0.026-2.414 c-0.67-0.585-1.743-0.452-2.397,0.295l-6.375,7.188l-2.703,2.585l-0.054,0.066c0.468-1.067,1.188-2.939,1.309-4.602 c0.021-0.294,0.029-2.791-1.583-2.483c-0.587,0.112-0.927,1.832-1.765,3.47c-0.872,1.706-2.006,3.294-2.085,4.174 c-0.148,1.724-0.562,5.171-0.562,5.171s-0.867,2.38-1.323,3.391l-4.046,4.148c2.64,3.013,5.566,5.767,8.738,8.222l3.9-4.339 c2.754-1.678,3.965-1.416,6.533-3.781c2.232-2.056,4.489-5,5.095-5.809l4.135-4.075c0.655-0.688,0.716-1.693,0.137-2.245 C41.069,92.175,40.069,92.285,39.414,92.974z"></path></svg>