<svg class="svgicon" id="svg53" preserveAspectRatio="xMidYMid meet" xmlns="http://www.w3.org/2000/svg" viewBox="0 0 60 60"><style> #svg53 path, #svg53 circle, #svg53 polygon, #svg53 rect { fill: rgb(51, 51, 51) } #svg53 defs &gt; path { fill: none } #svg53 path[fill="none"], #svg53 circle[fill="none"], #svg53 polygon[fill="none"], #svg53 rect[fill="none"] { fill: none } </style><path fill="rgb(51, 51, 51)" d="M59.133,29.598c-1.368-2.542-8.98-3.816-13.819-4.379c-2.781-3.405-7.182-8.67-8.315-9.322 c-1.604-0.924-5.882-1.118-9.188-1.118c-9.114,0-10.236,1.122-10.658,1.544l-0.282,0.28c-4.194,4.146-6.801,7.121-7.932,9.055 c-0.628,0.044-1.729,0.023-2.322,0.013c-0.355-0.007-0.685-0.013-0.956-0.013c-1.898,0-2.396,2.26-2.789,7.325 c-0.062,0.797-0.112,1.601-0.154,2.362h-1.71C0.424,35.345,0,35.885,0,36.63v1.939c0,0.745,0.424,1.285,1.007,1.285h1.531 c0.029,0.351,0.14,0.694,0.347,0.993c0.377,0.539,0.994,0.86,1.651,0.86h4.12c0.834,0,1.511-0.676,1.511-1.511 c0-0.038-0.001-0.075-0.003-0.111c-0.031-0.808-0.696-1.452-1.511-1.452c-0.137,0-0.271,0.018-0.396,0.053H5.598 c0.135-4.492,0.487-8.502,0.869-9.997c0.031,0.001,0.062,0.001,0.095,0.002c2.81,0.051,4.218,0.076,4.785-1.133 c0.498-1.061,2.229-3.449,7.648-8.808l0.226-0.224c0.597-0.289,3.378-0.727,8.59-0.727c4.643,0,7.096,0.413,7.652,0.7 c0.796,0.604,4.623,5.082,7.897,9.104c0.019,0.022,0.042,0.04,0.062,0.061c0.046,0.051,0.092,0.103,0.146,0.146 c0.034,0.028,0.072,0.051,0.108,0.075c0.045,0.031,0.088,0.064,0.136,0.091c0.042,0.022,0.087,0.038,0.131,0.057 c0.047,0.02,0.092,0.043,0.142,0.058c0.057,0.018,0.115,0.026,0.174,0.037c0.037,0.007,0.072,0.02,0.11,0.023 c5.719,0.626,11.385,1.987,12.103,2.876c0.644,1.196,0.575,4.938,0.306,7.657h-6.788c-0.127-0.035-0.26-0.053-0.396-0.053 c-0.816,0-1.481,0.646-1.511,1.456c-0.002,0.035-0.003,0.079-0.003,0.107c0,0.835,0.676,1.511,1.511,1.511h8.092 c1.069,0,1.946-0.837,2.011-1.891C59.862,38.424,60.529,32.193,59.133,29.598z M1.512,36.855h1.132 c-0.024,0.562-0.043,1.069-0.058,1.488H1.512V36.855z"></path><path fill="rgb(51, 51, 51)" d="M34.13,38.688l-0.009-0.001c-0.092-0.013-0.188-0.021-0.29-0.025c-0.075-0.003-0.149-0.007-0.206-0.01 c-0.207-0.033-0.43-0.02-0.63,0.035h-7.749c-0.199-0.055-0.423-0.067-0.631-0.035c-0.056,0.003-0.13,0.007-0.205,0.01 c-0.102,0.005-0.198,0.013-0.289,0.025l-0.009,0.001c-1.307,0.169-1.511,1.004-1.511,1.51c0,0.835,0.676,1.511,1.511,1.511H34.13 c0.834,0,1.511-0.676,1.511-1.511C35.641,39.691,35.436,38.856,34.13,38.688z M23.353,39.938c0.028-0.208,0.098-0.396,0.196-0.562 C23.449,39.545,23.381,39.734,23.353,39.938z M34.692,39.375c0.099,0.166,0.168,0.354,0.196,0.562 C34.861,39.734,34.793,39.544,34.692,39.375z"></path><path fill="rgb(51, 51, 51)" d="M15.535,27.869h9.999c0.529,0,0.96-0.43,0.96-0.956l0.023-6.521c0-0.528-0.431-0.959-0.961-0.959 l-4.609,0.008c-0.268,0-0.525,0.113-0.731,0.339l-5.389,6.483c-0.257,0.281-0.323,0.688-0.171,1.032 C14.809,27.645,15.153,27.869,15.535,27.869z M21.206,20.951l3.799-0.006l-0.02,5.413h-8.273L21.206,20.951z"></path><path fill="rgb(51, 51, 51)" d="M28.679,27.869h10.044c0.364,0,0.702-0.211,0.866-0.545c0.158-0.332,0.115-0.718-0.101-0.992l-4.832-6.457 c-0.18-0.231-0.462-0.369-0.75-0.369l-5.305-0.049c-0.528,0-0.959,0.43-0.959,0.968l0.076,6.485 C27.719,27.439,28.149,27.869,28.679,27.869z M33.622,21.015l4,5.344h-8.398l-0.063-5.386L33.622,21.015z"></path><path fill="rgb(51, 51, 51)" d="M16.385,35.067c-2.801,0-5.078,2.277-5.078,5.077c0,2.799,2.277,5.077,5.078,5.077 c2.799,0,5.076-2.278,5.076-5.077C21.461,37.345,19.184,35.067,16.385,35.067z M16.385,43.207c-1.689,0-3.063-1.374-3.063-3.062 s1.374-3.062,3.063-3.062c1.688,0,3.062,1.374,3.062,3.062S18.072,43.207,16.385,43.207z"></path><path fill="rgb(51, 51, 51)" d="M42.077,35.067c-2.8,0-5.078,2.277-5.078,5.077c0,2.799,2.278,5.077,5.078,5.077 c2.799,0,5.076-2.278,5.076-5.077C47.153,37.345,44.876,35.067,42.077,35.067z M42.077,43.207c-1.689,0-3.063-1.374-3.063-3.062 s1.374-3.062,3.063-3.062c1.688,0,3.062,1.374,3.062,3.062S43.765,43.207,42.077,43.207z"></path></svg>