<svg class="svgicon" id="svg58" preserveAspectRatio="xMidYMid meet" xmlns="http://www.w3.org/2000/svg" viewBox="0 0 60 60"><style> #svg58 path, #svg58 circle, #svg58 polygon, #svg58 rect { fill: rgb(51, 51, 51) } #svg58 defs &gt; path { fill: none } #svg58 path[fill="none"], #svg58 circle[fill="none"], #svg58 polygon[fill="none"], #svg58 rect[fill="none"] { fill: none } </style><path fill="rgb(51, 51, 51)" d="M54.16,0H5.84C4.83,0,4.013,0.818,4.013,1.827v56.347C4.013,59.183,4.83,60,5.84,60h48.32 c1.01,0,1.827-0.817,1.827-1.826V1.827C55.987,0.818,55.17,0,54.16,0z M52.333,56.346H7.667V3.654h44.666V56.346z"></path><path fill="rgb(51, 51, 51)" d="M11.932,20.505h36.543c0.336,0,0.608-0.272,0.608-0.608V7.461c0-0.336-0.272-0.608-0.608-0.608H11.932 c-0.337,0-0.609,0.272-0.609,0.608v12.436C11.322,20.232,11.595,20.505,11.932,20.505z M12.54,8.07h35.325v11.217H12.54V8.07z"></path><path fill="rgb(51, 51, 51)" d="M11.932,28.017h3.654c0.337,0,0.608-0.272,0.608-0.609c0-0.336-0.271-0.608-0.608-0.608h-3.654 c-0.337,0-0.609,0.272-0.609,0.608C11.322,27.744,11.595,28.017,11.932,28.017z"></path><path fill="rgb(51, 51, 51)" d="M21.433,28.017h5.847c0.336,0,0.608-0.272,0.608-0.609c0-0.336-0.272-0.608-0.608-0.608h-5.847 c-0.337,0-0.609,0.272-0.609,0.608C20.823,27.744,21.096,28.017,21.433,28.017z"></path><path fill="rgb(51, 51, 51)" d="M33.126,28.017h5.847c0.337,0,0.609-0.272,0.609-0.609c0-0.336-0.272-0.608-0.609-0.608h-5.847 c-0.337,0-0.609,0.272-0.609,0.608C32.517,27.744,32.789,28.017,33.126,28.017z"></path><path fill="rgb(51, 51, 51)" d="M48.475,26.799H44.82c-0.337,0-0.609,0.272-0.609,0.608c0,0.337,0.272,0.609,0.609,0.609h3.654 c0.336,0,0.608-0.272,0.608-0.609C49.083,27.071,48.811,26.799,48.475,26.799z"></path><path fill="rgb(51, 51, 51)" d="M11.932,35.598h3.654c0.337,0,0.608-0.271,0.608-0.608s-0.271-0.609-0.608-0.609h-3.654 c-0.337,0-0.609,0.272-0.609,0.609S11.595,35.598,11.932,35.598z"></path><path fill="rgb(51, 51, 51)" d="M21.433,35.598h5.847c0.336,0,0.608-0.271,0.608-0.608s-0.272-0.609-0.608-0.609h-5.847 c-0.337,0-0.609,0.272-0.609,0.609S21.096,35.598,21.433,35.598z"></path><path fill="rgb(51, 51, 51)" d="M33.126,35.598h5.847c0.337,0,0.609-0.271,0.609-0.608s-0.272-0.609-0.609-0.609h-5.847 c-0.337,0-0.609,0.272-0.609,0.609S32.789,35.598,33.126,35.598z"></path><path fill="rgb(51, 51, 51)" d="M48.475,34.38H44.82c-0.337,0-0.609,0.272-0.609,0.609s0.272,0.608,0.609,0.608h3.654 c0.336,0,0.608-0.271,0.608-0.608S48.811,34.38,48.475,34.38z"></path><path fill="rgb(51, 51, 51)" d="M48.475,42.814H44.82c-0.337,0-0.609,0.272-0.609,0.609c0,0.336,0.272,0.608,0.609,0.608h3.654 c0.336,0,0.608-0.272,0.608-0.608C49.083,43.087,48.811,42.814,48.475,42.814z"></path><path fill="rgb(51, 51, 51)" d="M38.974,42.814h-5.847c-0.337,0-0.609,0.272-0.609,0.609c0,0.336,0.272,0.608,0.609,0.608h5.847 c0.336,0,0.608-0.272,0.608-0.608C39.582,43.087,39.31,42.814,38.974,42.814z"></path><path fill="rgb(51, 51, 51)" d="M27.279,42.814h-5.847c-0.336,0-0.608,0.272-0.608,0.609c0,0.336,0.272,0.608,0.608,0.608h5.847 c0.337,0,0.609-0.272,0.609-0.608C27.889,43.087,27.616,42.814,27.279,42.814z"></path><path fill="rgb(51, 51, 51)" d="M11.932,44.032h3.654c0.337,0,0.608-0.272,0.608-0.608c0-0.337-0.271-0.609-0.608-0.609h-3.654 c-0.337,0-0.609,0.272-0.609,0.609C11.322,43.76,11.595,44.032,11.932,44.032z"></path><path fill="rgb(51, 51, 51)" d="M44.211,10.963c-0.337,0-0.609,0.272-0.609,0.609v4.061c0,0.336,0.272,0.609,0.609,0.609 s0.609-0.273,0.609-0.609v-4.061C44.82,11.235,44.548,10.963,44.211,10.963z"></path><path fill="rgb(51, 51, 51)" d="M40.557,10.963c-0.337,0-0.609,0.272-0.609,0.609v4.061c0,0.336,0.272,0.609,0.609,0.609 s0.609-0.273,0.609-0.609v-4.061C41.166,11.235,40.894,10.963,40.557,10.963z"></path></svg>