<svg class="svgicon" id="svg68" preserveAspectRatio="xMidYMid meet" xmlns="http://www.w3.org/2000/svg" viewBox="0 0 60 60"><style> #svg68 path, #svg68 circle, #svg68 polygon, #svg68 rect { fill: rgb(51, 51, 51) } #svg68 defs &gt; path { fill: none } #svg68 path[fill="none"], #svg68 circle[fill="none"], #svg68 polygon[fill="none"], #svg68 rect[fill="none"] { fill: none } </style><path fill="rgb(51, 51, 51)" d="M47.092,40.75c0.418,0,0.815-0.184,1.088-0.5l11.475-13.379c0.516-0.602,0.446-1.506-0.154-2.021 c-0.602-0.516-1.508-0.447-2.023,0.154L46.432,37.881H30.479v-3.758h16.613c0.418,0,0.815-0.182,1.088-0.5l11.475-13.377 c0.516-0.601,0.446-1.506-0.154-2.022c-0.602-0.516-1.508-0.447-2.023,0.154L46.432,31.256H30.479V28.43h14.7 c0.419,0,0.816-0.182,1.089-0.5l11.475-13.377c0.364-0.425,0.448-1.023,0.215-1.533c-0.234-0.509-0.743-0.835-1.304-0.835H41.28 c0.233-0.404,0.26-0.9,0.057-1.331c-0.237-0.501-0.742-0.821-1.297-0.821H25.08c-0.43,0-0.836,0.192-1.108,0.524l-1.337,1.628 h-9.727c-0.418,0-0.815,0.183-1.088,0.5L0.346,26.062c-0.365,0.426-0.448,1.023-0.215,1.533c0.234,0.508,0.743,0.834,1.304,0.834 h11.215v2.789H1.435C0.643,31.219,0,31.861,0,32.652c0,0.793,0.643,1.436,1.435,1.436h11.215v3.793H1.435 C0.643,37.881,0,38.523,0,39.314c0,0.793,0.643,1.436,1.435,1.436h11.215v3.213H1.435C0.643,43.963,0,44.604,0,45.396 s0.643,1.434,1.435,1.434h11.215v1.703c0,0.791,0.642,1.434,1.435,1.434h14.96c0.792,0,1.435-0.643,1.435-1.434V46.83h16.613 c0.418,0,0.815-0.182,1.088-0.5l11.475-13.377c0.516-0.602,0.446-1.506-0.154-2.021c-0.602-0.516-1.508-0.447-2.023,0.154 L46.432,43.963H30.479V40.75H47.092z M44.52,25.561H30.479v-0.193l8.473-10.314h14.582L44.52,25.561z M4.555,25.561l9.014-10.507 h6.71l-7.304,8.89c-0.21,0.256-0.325,0.578-0.325,0.91v0.707H4.555z M27.609,47.098H15.518v-21.73l10.24-12.466h11.248 l-9.07,11.042c-0.211,0.256-0.326,0.578-0.326,0.91V47.098z"></path><path fill="rgb(51, 51, 51)" d="M21.758,34.508C20.531,34,20.01,33.633,20.01,32.9c0-0.564,0.408-1.215,1.494-1.215 c0.903,0,1.482,0.311,1.778,0.48l0.353-0.932c-0.408-0.238-0.987-0.465-1.834-0.492v-1.369h-0.875v1.424 c-1.297,0.213-2.131,1.102-2.131,2.271c0,1.229,0.89,1.877,2.328,2.441c1.045,0.424,1.596,0.904,1.596,1.68 c0,0.803-0.679,1.383-1.68,1.383c-0.79,0-1.523-0.27-2.031-0.607l-0.34,0.945c0.494,0.354,1.342,0.607,2.159,0.621v1.424h0.89 v-1.467c1.453-0.238,2.229-1.283,2.229-2.398C23.945,35.834,23.213,35.102,21.758,34.508z"></path></svg>