<svg class="svgicon" id="svg73" preserveAspectRatio="xMidYMid meet" xmlns="http://www.w3.org/2000/svg" viewBox="0 0 128 128"><style> #svg73 path, #svg73 circle, #svg73 polygon, #svg73 rect { fill: rgb(51, 51, 51) } #svg73 defs &gt; path { fill: none } #svg73 path[fill="none"], #svg73 circle[fill="none"], #svg73 polygon[fill="none"], #svg73 rect[fill="none"] { fill: none } </style><style type="text/css"> #svg73 .st0{fill:rgb(51, 51, 51);} </style><path class="st0" d="M111.146,20.943H97.42c-1.475,0-2.73,1.071-2.963,2.527L92.52,35.607l-7.867-7.61 c-0.295-0.285-0.691-0.441-1.104-0.42c-0.41,0.017-0.795,0.2-1.066,0.509l-2.852,3.25H55.312c-0.828,0-1.5,0.671-1.5,1.5v9.904 H40.875L35.48,19.59c-0.094-0.405-0.354-0.753-0.713-0.96c-0.361-0.207-0.791-0.255-1.189-0.133l-12.996,4.012 c-0.77,0.237-1.215,1.041-1.008,1.819l4.904,18.411h-7.625c-0.916,0-1.781,0.419-2.352,1.136c-0.568,0.718-0.779,1.656-0.57,2.548 l8.699,37.207c0.318,1.357,1.527,2.317,2.922,2.317h58.934l-0.738,4.623H26.83c-0.297,0-0.578,0.057-0.85,0.137 c-4.506,0.74-7.957,4.65-7.957,9.362c0,5.237,4.262,9.498,9.498,9.498c5.238,0,9.498-4.261,9.498-9.498 c0-1.236-0.244-2.415-0.676-3.499h40.031c-0.432,1.084-0.676,2.263-0.676,3.499c0,5.237,4.26,9.498,9.496,9.498 c5.238,0,9.5-4.261,9.5-9.498c0-3.629-2.049-6.787-5.047-8.386L99.98,26.943h11.166c1.656,0,3-1.344,3-3 C114.146,22.286,112.803,20.943,111.146,20.943z M78.301,52.459v24.172c0,0.828-0.672,1.5-1.5,1.5s-1.5-0.672-1.5-1.5V52.459 c0-0.828,0.672-1.5,1.5-1.5S78.301,51.631,78.301,52.459z M63.975,52.459v24.172c0,0.828-0.672,1.5-1.5,1.5s-1.5-0.672-1.5-1.5 V52.459c0-0.828,0.672-1.5,1.5-1.5S63.975,51.631,63.975,52.459z M49.65,52.459v24.172c0,0.828-0.672,1.5-1.5,1.5 s-1.5-0.672-1.5-1.5V52.459c0-0.828,0.672-1.5,1.5-1.5S49.65,51.631,49.65,52.459z M35.324,52.459v24.172 c0,0.828-0.672,1.5-1.5,1.5s-1.5-0.672-1.5-1.5V52.459c0-0.828,0.672-1.5,1.5-1.5S35.324,51.631,35.324,52.459z M83.699,31.248 l8.244,7.976l-0.561,3.517H73.615L83.699,31.248z M56.812,34.335h20.186l-7.373,8.404H56.812V34.335z M22.844,24.951l10.08-3.111 l4.871,20.9H27.582L22.844,24.951z"></path></svg>