<svg class="svgicon" id="svg18" preserveAspectRatio="xMidYMid meet" xmlns="http://www.w3.org/2000/svg" viewBox="0 0 128 128"><style> #svg18 path, #svg18 circle, #svg18 polygon, #svg18 rect { fill: rgb(51, 51, 51) } #svg18 defs &gt; path { fill: none } #svg18 path[fill="none"], #svg18 circle[fill="none"], #svg18 polygon[fill="none"], #svg18 rect[fill="none"] { fill: none } </style><style type="text/css"> #svg18 .st0{fill:rgb(51, 51, 51);} </style><rect x="21.779" y="96.062" class="st0" width="38.317" height="9.166"></rect><rect x="9.527" y="22.334" class="st0" width="38.317" height="9.168"></rect><path class="st0" d="M21.059,68.262h0.094c0.175-0.072,0.367-0.113,0.568-0.113h37.656v-9.055h-2.679 c-0.191,0.088-0.402,0.141-0.626,0.141H21.059V68.262z"></path><path class="st0" d="M60.877,71.262H23.221v9.053h38.317v-9.166h-0.093C61.271,71.221,61.078,71.262,60.877,71.262z"></path><path class="st0" d="M16.254,56.234h2.679c0.191-0.088,0.402-0.141,0.626-0.141h35.014v-9.025H16.254V56.234z"></path><rect x="16.254" y="83.613" class="st0" width="38.318" height="9.166"></rect><rect x="23.221" y="34.693" class="st0" width="38.317" height="9.166"></rect><rect x="80.154" y="71.766" class="st0" width="38.317" height="9.166"></rect><rect x="79.913" y="96.498" class="st0" width="38.318" height="9.168"></rect><rect x="74.389" y="84.123" class="st0" width="38.318" height="9.166"></rect></svg>