<svg class="svgicon" id="svg27" preserveAspectRatio="xMidYMid meet" xmlns="http://www.w3.org/2000/svg" viewBox="0 0 128 128"><style> #svg27 path, #svg27 circle, #svg27 polygon, #svg27 rect { fill: rgb(51, 51, 51) } #svg27 defs &gt; path { fill: none } #svg27 path[fill="none"], #svg27 circle[fill="none"], #svg27 polygon[fill="none"], #svg27 rect[fill="none"] { fill: none } </style><style type="text/css"> #svg27 .st0{fill:rgb(51, 51, 51);} </style><path class="st0" d="M103.116,54.877c-1.432-5.23-4.036-11.199-7.291-16.659c-5.96-10.001-8.771-10.001-9.829-10.001 c-0.251-0.002-1.38-0.08-2.472-0.155c-4.072-0.283-11.652-0.809-19.407-0.809c-7.977,0-16.045,0.557-19.923,0.824 c-1.144,0.079-1.915,0.136-2.19,0.14c-0.996,0-3.641,0-9.683,9.983c-3.352,5.538-6.008,11.511-7.438,16.676 c-9.714,3.707-8.33,19.328-8.127,21.21c0.183,1.61,1.308,2.891,2.784,3.352c-0.269,0.397-0.426,0.877-0.426,1.392v6.389 c0,1.374,1.117,2.491,2.491,2.491h2.448v4.797c0,3.442,2.801,6.242,6.243,6.242h3.158c3.441,0,6.241-2.8,6.241-6.242v-4.797h51.339 v4.797c0,3.442,2.8,6.242,6.242,6.242h3.158c3.441,0,6.241-2.8,6.241-6.242v-4.798c1.35-0.026,2.439-1.134,2.439-2.49v-6.389 c0-0.54-0.177-1.037-0.47-1.445c1.387-0.509,2.423-1.76,2.595-3.311C111.445,74.203,112.827,58.587,103.116,54.877z M64.984,32.491 c0.581-0.005,1.407-0.011,2.388-0.011c13.541,0,15.173,1.163,15.709,1.545c2.577,1.843,8.289,18.019,8.344,18.18 c0.18,0.56,0.087,1.152-0.241,1.608c-0.331,0.462-0.871,0.739-1.442,0.739H39.4c-0.553,0-1.082-0.262-1.416-0.701 c-0.341-0.455-0.447-1.041-0.29-1.576c1.487-5.129,5.345-17.207,9.015-18.483c3.398-1.183,15.951-1.282,17.371-1.289v0.03 C64.385,32.497,64.699,32.494,64.984,32.491z M33.876,61.584c3.257,0,5.907,2.649,5.907,5.906s-2.65,5.906-5.907,5.906 s-5.907-2.649-5.907-5.906S30.619,61.584,33.876,61.584z M104.273,76.633c0,0.634,0.199,1.22,0.534,1.704H23.192 c0.335-0.484,0.534-1.07,0.534-1.704H104.273z M100.029,67.49c0,3.257-2.65,5.906-5.907,5.906s-5.906-2.649-5.906-5.906 s2.649-5.906,5.906-5.906S100.029,64.233,100.029,67.49z"></path></svg>