<svg class="svgicon" id="svg29" preserveAspectRatio="xMidYMid meet" xmlns="http://www.w3.org/2000/svg" viewBox="0 0 128 128"><style> #svg29 path, #svg29 circle, #svg29 polygon, #svg29 rect { fill: rgb(51, 51, 51) } #svg29 defs &gt; path { fill: none } #svg29 path[fill="none"], #svg29 circle[fill="none"], #svg29 polygon[fill="none"], #svg29 rect[fill="none"] { fill: none } </style><style type="text/css"> #svg29 .st0{fill:rgb(51, 51, 51);} </style><path class="st0" d="M48.538,76.797c-10.262,0-16.238,1.9-16.564,2.918c0.324,0.969,6.301,2.869,16.564,2.869 s16.24-1.9,16.564-2.92C64.776,78.697,58.8,76.797,48.538,76.797z"></path><path class="st0" d="M48.538,84.912c-5.139,0-12.928-0.572-16.562-2.463v3.953c0.322,0.994,6.299,2.895,16.562,2.895 c10.236,0,16.207-1.891,16.562-2.91c0-0.014,0.002-0.025,0.002-0.037l-0.002-3.9C61.466,84.34,53.677,84.912,48.538,84.912z"></path><path class="st0" d="M48.538,91.426c-5.141,0-12.928-0.574-16.562-2.467v3.957c0.322,0.994,6.299,2.895,16.562,2.895 s16.24-1.9,16.564-2.92l-0.002-3.932C61.468,90.852,53.677,91.426,48.538,91.426z"></path><path class="st0" d="M48.538,98.098c-5.139,0-12.928-0.572-16.562-2.463v4.082c0.322,0.994,6.299,2.895,16.562,2.895 s16.24-1.9,16.564-2.92l-0.002-4.057C61.466,97.525,53.677,98.098,48.538,98.098z"></path><path class="st0" d="M120.122,25.389H7.878c-1.658,0-3,1.344-3,3v60.527c0,1.658,1.342,3,3,3h16.836c1.656,0,3-1.342,3-3 c0-1.656-1.344-3-3-3H10.878V31.389h106.244v54.527H72.708c-1.658,0-3,1.344-3,3c0,1.658,1.342,3,3,3h47.414c1.656,0,3-1.342,3-3 V28.389C123.122,26.732,121.778,25.389,120.122,25.389z"></path><path class="st0" d="M29.743,39.332h68.508c5.301,0,9.613,4.311,9.613,9.611v19.42c0,5.301-4.312,9.611-9.613,9.611H71.933 c-1.104,0-2,0.896-2,2c0,1.105,0.896,2,2,2h26.318c7.506,0,13.613-6.105,13.613-13.611v-19.42c0-7.506-6.107-13.611-13.613-13.611 H29.743c-7.504,0-13.609,6.105-13.609,13.611v19.42c0,5.621,3.375,10.59,8.6,12.658c1.027,0.408,2.189-0.096,2.596-1.123 c0.408-1.025-0.096-2.189-1.123-2.596c-3.689-1.461-6.072-4.969-6.072-8.939v-19.42C20.134,43.643,24.444,39.332,29.743,39.332z"></path><path class="st0" d="M78.702,58.654c0-8.109-6.596-14.705-14.703-14.705s-14.705,6.596-14.705,14.705 c0,8.107,6.598,14.703,14.705,14.703S78.702,66.762,78.702,58.654z"></path></svg>