<svg class="svgicon" id="svg117" preserveAspectRatio="xMidYMid meet" xmlns="http://www.w3.org/2000/svg" viewBox="0 0 128 128"><style> #svg117 path, #svg117 circle, #svg117 polygon, #svg117 rect { fill: rgb(0, 0, 0) } #svg117 defs &gt; path { fill: none } #svg117 path[fill="none"], #svg117 circle[fill="none"], #svg117 polygon[fill="none"], #svg117 rect[fill="none"] { fill: none } </style><path d="M116.74,80.776l-10.995-33.322c-0.037-0.092-0.091-0.172-0.149-0.246c0.229-0.345,0.419-0.729,0.556-1.155 c0.589-1.832,0.376-3.728-0.443-5.312c-0.001,0.01-0.006,0.02-0.008,0.03c-0.438-0.871-1.27-1.603-2.351-1.95 c-1.958-0.629-3.987,0.235-4.531,1.929c-0.545,1.696,0.601,3.58,2.559,4.209c0.047,0.015,0.095,0.025,0.142,0.039 c-0.957,0.226-1.985,0.208-2.99-0.115c-1.481-0.477-4.019-3.369-9.328-5.075c-3.702-1.19-11.385-1.502-21.371-4.195 c-0.088-6.28-2.134-9.098-3.492-9.098c-1.199,0-2.746,2.198-3.146,7.036c-10.629-3.752-17.583-8.396-21.497-9.653 c-5.309-1.707-9.057-0.834-10.538-1.31c-1.005-0.323-1.851-0.907-2.497-1.649c0.046,0.017,0.091,0.036,0.139,0.051 c1.957,0.629,3.986-0.234,4.53-1.93c0.545-1.695-0.601-3.579-2.558-4.208c-1.082-0.348-2.185-0.238-3.047,0.215 c0.004-0.01,0.007-0.02,0.011-0.029c-1.588,0.81-2.866,2.227-3.454,4.059c-0.477,1.481-0.159,2.917,0.558,4.096 c-0.064,0.078-0.121,0.163-0.161,0.261L11.271,56.776h-0.334c0,0,0,14.546,14.754,14.546s14.974-14.546,14.974-14.546h-0.297 L29.823,25.961c2.217-0.047,5.252,0.195,10.728,2.146c4.06,1.446,11.612,6.74,20.783,9.893c0.274,1.042,0.766,1.812,1.362,2.304 v52.197c-1.708,1.106-4.039,4.227-4.039,13.025c0,0,1.516,5.301-23.476,5.301v2.524h58.563v-2.524 c-24.99,0-23.476-5.301-23.476-5.301c0-9.24-2.571-12.217-4.292-13.177V40.494c0.332-0.222,0.637-0.525,0.902-0.903 c8.041,1.896,15.551,2.1,19.172,3.14c7.945,2.283,9.868,4.497,11.934,6.044c0.254,0.19,0.552,0.348,0.881,0.471L88.469,80.776 h-0.288c0,0,0.213,14.546,14.549,14.546c14.334,0,14.334-14.546,14.334-14.546H116.74z M38.468,56.776H13.17l11.148-31.905 c0.95,0.764,2.055,1.217,3.013,1.197c0.135-0.002,0.27-0.007,0.406-0.013L38.468,56.776z M90.313,80.776l10.557-31.208 c1.07-0.016,2.203-0.301,3.164-0.882l10.86,32.09H90.313z"></path></svg>